g House_ShadowSide
v -0.6413203 -0.7102174 0
v -0.6081598 -0.7154692 -2.980232E-08
v 0.6081599 -0.7154692 0
v 0.6413204 -0.7102174 0
v -0.6712348 -0.6949753 0
v 0.6413204 -0.7102174 0
v 0.671235 -0.6949753 0
v -0.6949753 -0.671235 0
v 0.6949753 -0.671235 0
v -0.7102175 -0.6413201 0
v 0.7102175 -0.6413201 0
v -0.7154695 -0.6081599 0
v 0.7154697 -0.6081599 0
v -0.7154696 0 0
v 0.7154696 0 0
v -0.6081598 -0.7154692 -2.980232E-08
v -0.619852 -0.7335081 -4.668568E-08
v 0.6198521 -0.7335081 -1.632208E-08
v 0.6081599 -0.7154692 0
v -0.7154696 0 0
v -0.7346199 -1.061196E-10 4.270011E-10
v -0.7345833 -0.6131943 4.270011E-10
v -0.7154695 -0.6081599 0
v 0.7154697 -0.6081599 0
v 0.7345834 -0.6131943 4.270011E-10
v 0.7346197 0 4.270011E-10
v 0.7154696 0 0
v -0.6413203 -0.7102174 0
v -0.6549734 -0.7222525 -7.903969E-09
v -0.619852 -0.7335081 -4.668568E-08
v -0.6081598 -0.7154692 -2.980232E-08
v -0.6712348 -0.6949753 0
v -0.6870763 -0.7058954 4.270011E-10
v -0.6549734 -0.7222525 -7.903969E-09
v -0.6413203 -0.7102174 0
v -0.6949753 -0.671235 0
v -0.7125533 -0.6804186 4.270011E-10
v -0.6870763 -0.7058954 4.270011E-10
v -0.6712348 -0.6949753 0
v -0.7102175 -0.6413201 0
v -0.7289104 -0.6483155 4.270011E-10
v -0.7125533 -0.6804186 4.270011E-10
v -0.6949753 -0.671235 0
v -0.7154695 -0.6081599 0
v -0.7345833 -0.6131943 4.270011E-10
v -0.7289104 -0.6483155 4.270011E-10
v -0.7102175 -0.6413201 0
v 0.6081599 -0.7154692 0
v 0.6198521 -0.7335081 -1.632208E-08
v 0.6549736 -0.7222525 -7.892885E-09
v 0.6413204 -0.7102174 0
v 0.6413204 -0.7102174 0
v 0.6549736 -0.7222525 -7.892885E-09
v 0.6870764 -0.7058954 4.270011E-10
v 0.671235 -0.6949753 0
v 0.671235 -0.6949753 0
v 0.6870764 -0.7058954 4.270011E-10
v 0.7125533 -0.6804186 4.270011E-10
v 0.6949753 -0.671235 0
v 0.6949753 -0.671235 0
v 0.7125533 -0.6804186 4.270011E-10
v 0.7289104 -0.6483155 4.270011E-10
v 0.7102175 -0.6413201 0
v 0.7102175 -0.6413201 0
v 0.7289104 -0.6483155 4.270011E-10
v 0.7345834 -0.6131943 4.270011E-10
v 0.7154697 -0.6081599 0
vt 0 0
vt 0.375 0.2687481
vt 0.375 0.4812519
vt 0 0
vt 0.375 0.25
vt 0 0
vt 0.375 0.5
vt 0.3812494 0.25
vt 0.3812494 0.5
vt 0.3874988 0.25
vt 0.3874987 0.5
vt 0.3937482 0.25
vt 0.3937481 0.5
vt 0.4996386 0.25
vt 0.5 0.5
vt 0 0
vt 0 1
vt 1 1
vt 1 0
vt 0 0
vt 0 1
vt 1 1
vt 1 0
vt 0 0
vt 0 1
vt 1 1
vt 1 0
vt 0 0
vt 0 1
vt 1 1
vt 1 0
vt 0 0
vt 0 1
vt 1 1
vt 1 0
vt 0 0
vt 0 1
vt 1 1
vt 1 0
vt 0 0
vt 0 1
vt 1 1
vt 1 0
vt 0 0
vt 0 1
vt 1 1
vt 1 0
vt 0 0
vt 0 1
vt 1 1
vt 1 0
vt 0 0
vt 0 1
vt 1 1
vt 1 0
vt 0 0
vt 0 1
vt 1 1
vt 1 0
vt 0 0
vt 0 1
vt 1 1
vt 1 0
vt 0 0
vt 0 1
vt 1 1
vt 1 0
vn 0 0 -1
vn 0 0 -1
vn 0 0 -1
vn 0 0 -1
vn 0 0 -1
vn 0 0 -1
vn 0 0 -1
vn 0 0 -1
vn 0 0 -1
vn 0 0 -1
vn 0 0 -1
vn 0 0 -1
vn 0 0 -1
vn 0 0 -1
vn 0 0 -1
vn 0 0 -1
vn 0 0 -1
vn 0 0 -1
vn 0 0 -1
vn 0 0 -1
vn 0 0 -1
vn 0 0 -1
vn 0 0 -1
vn 0 0 -1
vn 0 0 -1
vn 0 0 -1
vn 0 0 -1
vn 0 0 -1
vn 0 0 -1
vn 0 0 -1
vn 0 0 -1
vn 0 0 -1
vn 0 0 -1
vn 0 0 -1
vn 0 0 -1
vn 0 0 -1
vn 0 0 -1
vn 0 0 -1
vn 0 0 -1
vn 0 0 -1
vn 0 0 -1
vn 0 0 -1
vn 0 0 -1
vn 0 0 -1
vn 0 0 -1
vn 0 0 -1
vn 0 0 -1
vn 0 0 -1
vn 0 0 -1
vn 0 0 -1
vn 0 0 -1
vn 0 0 -1
vn 0 0 -1
vn 0 0 -1
vn 0 0 -1
vn 0 0 -1
vn 0 0 -1
vn 0 0 -1
vn 0 0 -1
vn 0 0 -1
vn 0 0 -1
vn 0 0 -1
vn 0 0 -1
vn 0 0 -1
vn 0 0 -1
vn 0 0 -1
vn 0 0 -1
g House_ShadowSide_0
f 3/3/3 2/2/2 1/1/1
f 4/4/4 3/3/3 1/1/1
f 6/6/6 1/1/1 5/5/5
f 7/7/7 6/6/6 5/5/5
f 7/7/7 5/5/5 8/8/8
f 9/9/9 7/7/7 8/8/8
f 9/9/9 8/8/8 10/10/10
f 11/11/11 9/9/9 10/10/10
f 11/11/11 10/10/10 12/12/12
f 13/13/13 11/11/11 12/12/12
f 13/13/13 12/12/12 14/14/14
f 15/15/15 13/13/13 14/14/14
f 18/18/18 17/17/17 16/16/16
f 19/19/19 18/18/18 16/16/16
f 22/22/22 21/21/21 20/20/20
f 23/23/23 22/22/22 20/20/20
f 26/26/26 25/25/25 24/24/24
f 27/27/27 26/26/26 24/24/24
f 30/30/30 29/29/29 28/28/28
f 31/31/31 30/30/30 28/28/28
f 34/34/34 33/33/33 32/32/32
f 35/35/35 34/34/34 32/32/32
f 38/38/38 37/37/37 36/36/36
f 39/39/39 38/38/38 36/36/36
f 42/42/42 41/41/41 40/40/40
f 43/43/43 42/42/42 40/40/40
f 46/46/46 45/45/45 44/44/44
f 47/47/47 46/46/46 44/44/44
f 50/50/50 49/49/49 48/48/48
f 51/51/51 50/50/50 48/48/48
f 54/54/54 53/53/53 52/52/52
f 55/55/55 54/54/54 52/52/52
f 58/58/58 57/57/57 56/56/56
f 59/59/59 58/58/58 56/56/56
f 62/62/62 61/61/61 60/60/60
f 63/63/63 62/62/62 60/60/60
f 66/66/66 65/65/65 64/64/64
f 67/67/67 66/66/66 64/64/64
