g House_Shadow
v -0.6906104 0.6687436 1.945311E-16
v -1.298697 0.02259743 3.445342E-17
v 0 0 0
v -1.3278 -0.01289881 2.482529E-17
v -1.34938 -0.05341185 0
v -1.362599 -0.09736907 -9.966573E-18
v -1.366945 -0.1430644 -2.0053E-17
v -1.366945 -1.090751 -8.568168E-08
v -1.349569 -1.1748 -2.780453E-16
v -1.310799 -1.250598 -3.055534E-16
v -1.250598 -1.310799 -3.055534E-16
v -1.1748 -1.349568 -3.055534E-16
v -1.090751 -1.366944 -3.330669E-16
v -0.1022576 -1.366944 -3.055534E-16
v -0.05656233 -1.362599 -3.055534E-16
v -0.01260518 -1.34938 -3.055534E-16
v 0.02790755 -1.3278 -3.055534E-16
v 0.06340442 -1.298697 -3.055534E-16
v 0.6993402 -0.6737266 -2.63799E-16
v 0 0 0
v 0.6125247 0.712978 0
v -0.6037952 0.712978 1.945311E-16
v -0.6369557 0.7077261 1.945311E-16
v -0.6668701 0.692484 1.945311E-16
v -0.6906104 0.6687436 1.945311E-16
v 0.6456851 0.7077261 -4.887061E-17
v 0.6125247 0.712978 0
v 0 0 0
v 0.6755997 0.692484 -8.328216E-17
v 0.69934 0.6687437 -1.346962E-16
v 0.7145822 0.6388294 -2.010754E-16
v 0.7198343 0.6056687 -2.63799E-16
v 0.7198344 -0.6106514 -2.63799E-16
v 0.7145822 -0.6438116 -2.63799E-16
v 0.6993402 -0.6737266 -2.63799E-16
vt 0.25 0
vt 0 0.4436213
vt 0.5 0.5
vt 0 0.4593765
vt 0 0.5
vt 0 0.516309
vt 0 0.5328142
vt 0 0.9317226
vt 0 0.9549864
vt 0 1
vt 0.0302996 1
vt 0.06316125 1
vt 0.093081 1
vt 0.4360836 1
vt 0.4773611 1
vt 0.5 1
vt 0.5339371 1
vt 0.5600216 1
vt 1 0.75
vt 0 0
vt 0 1
vt 1 1
vt 1 0.6475968
vt 1 0.286597
vt 1 0
vt 0.814743 1
vt 1 1
vt 1 0
vt 0.6842969 1
vt 0.4893982 1
vt 0.2377707 1
vt 0 1
vt 0 0.05243963
vt 0 0.0238585
vt 0 0
vn 0 0 -1
vn 0 0 -1
vn 0 0 -1
vn 0 0 -1
vn 0 0 -1
vn 0 0 -1
vn 0 0 -1
vn 0 0 -1
vn 0 0 -1
vn 0 0 -1
vn 0 0 -1
vn 0 0 -1
vn 0 0 -1
vn 0 0 -1
vn 0 0 -1
vn 0 0 -1
vn 0 0 -1
vn 0 0 -1
vn 0 0 -1
vn 0 0 -1
vn 0 0 -1
vn 0 0 -1
vn 0 0 -1
vn 0 0 -1
vn 0 0 -1
vn 0 0 -1
vn 0 0 -1
vn 0 0 -1
vn 0 0 -1
vn 0 0 -1
vn 0 0 -1
vn 0 0 -1
vn 0 0 -1
vn 0 0 -1
vn 0 0 -1
g House_Shadow_0
f 3/3/3 2/2/2 1/1/1
f 3/3/3 4/4/4 2/2/2
f 3/3/3 5/5/5 4/4/4
f 3/3/3 6/6/6 5/5/5
f 3/3/3 7/7/7 6/6/6
f 3/3/3 8/8/8 7/7/7
f 3/3/3 9/9/9 8/8/8
f 3/3/3 10/10/10 9/9/9
f 3/3/3 11/11/11 10/10/10
f 3/3/3 12/12/12 11/11/11
f 3/3/3 13/13/13 12/12/12
f 3/3/3 14/14/14 13/13/13
f 3/3/3 15/15/15 14/14/14
f 3/3/3 16/16/16 15/15/15
f 17/17/17 16/16/16 3/3/3
f 18/18/18 17/17/17 3/3/3
f 19/19/19 18/18/18 3/3/3
f 22/22/22 21/21/21 20/20/20
f 23/23/23 22/22/22 20/20/20
f 24/24/24 23/23/23 20/20/20
f 25/25/25 24/24/24 20/20/20
f 28/28/28 27/27/27 26/26/26
f 28/28/28 26/26/26 29/29/29
f 28/28/28 29/29/29 30/30/30
f 28/28/28 30/30/30 31/31/31
f 28/28/28 31/31/31 32/32/32
f 28/28/28 32/32/32 33/33/33
f 28/28/28 33/33/33 34/34/34
f 28/28/28 34/34/34 35/35/35
